<svg class="svg-icon" style="width: 1em; height: 1em;vertical-align: middle;fill: orange;overflow: hidden;" viewBox="0 0 1024 1024" version="1.1" xmlns="http://www.w3.org/2000/svg"><path d="M593.92 215.04c112.64 0 204.8 92.16 204.8 204.8v204.8c0 112.64-92.16 204.8-204.8 204.8h-204.8c-112.64 0-204.8-92.16-204.8-204.8v-204.8c0-112.64 92.16-204.8 204.8-204.8h204.8m0-51.2h-204.8c-143.36 0-256 112.64-256 256v204.8c0 143.36 112.64 256 256 256h204.8c143.36 0 256-112.64 256-256v-204.8c0-138.24-112.64-256-256-256z" fill="" /><path d="M527.36 762.88L230.4 460.8 307.2 399.36l174.08 133.12c71.68-81.92 230.4-250.88 445.44-384l20.48 40.96c-199.68 184.32-363.52 445.44-419.84 573.44m0 0" fill="" /></svg>